<?xml version="1.0" encoding="UTF-8"?>
<!-- Created with Inkscape (http://www.inkscape.org/) -->
<svg width="371.76" height="476.44" version="1.1" viewBox="0 0 98.362 126.06" xmlns="http://www.w3.org/2000/svg" xmlns:cc="http://creativecommons.org/ns#" xmlns:dc="http://purl.org/dc/elements/1.1/" xmlns:rdf="http://www.w3.org/1999/02/22-rdf-syntax-ns#">
 <metadata>
  <rdf:RDF>
   <cc:Work rdf:about="">
    <dc:format>image/svg+xml</dc:format>
    <dc:type rdf:resource="http://purl.org/dc/dcmitype/StillImage"/>
    <dc:title/>
   </cc:Work>
  </rdf:RDF>
 </metadata>
 <g transform="translate(-197.24 -58.642)">
  <g transform="matrix(.26458 0 0 .26458 167.82 43.096)">
   <g transform="matrix(1.8929 0 0 1.8929 -264.73 -165.93)">
    <path d="m299.2 319.9c-0.1-0.1-0.2-0.2-0.2-0.3l-0.2-0.2c-0.1 0-0.1-0.1-0.2-0.1-0.1-0.1-0.2-0.1-0.3-0.2-0.1 0-0.2-0.1-0.3-0.1s-0.2-0.1-0.2-0.1c-0.1 0-0.2 0-0.3-0.1h-0.3-0.3-0.3-0.3c-0.1 0-0.2 0-0.3 0.1-0.1 0-0.2 0.1-0.2 0.1-0.1 0-0.2 0.1-0.3 0.1s-0.2 0.1-0.3 0.2c-0.1 0-0.1 0.1-0.2 0.1l-0.4 0.4-8.1 10.1c-1 1.3-0.8 3.1 0.5 4.1 0.5 0.4 1.2 0.6 1.8 0.6 0.9 0 1.7-0.4 2.3-1.1l0.1-0.1c3-3.7 8.6-3.7 11.5 0l0.1 0.1c0.6 0.7 1.4 1.1 2.3 1.1 0.6 0 1.3-0.2 1.8-0.6 1.3-1 1.5-2.9 0.5-4.1z"/>
    <path d="m285.7 149.1c-4.1 0-7.5 3.2-7.7 7.3l-15.3 5.6c-0.8 0.3-1.4 1-1.4 1.9v9.7h-12.3c-0.9-3.3-3.8-5.7-7.4-5.7-4.2 0-7.7 3.4-7.7 7.7 0 4.2 3.4 7.7 7.7 7.7 3.6 0 6.5-2.4 7.4-5.7h14.3c1.1 0 2-0.9 2-2v-10.3l13.5-5c1.3 2.5 3.9 4.2 6.8 4.2 4.2 0 7.7-3.4 7.7-7.7 0.1-4.2-3.4-7.7-7.6-7.7z"/>
    <path class="st0" d="m269.5 292.3c-2.5-0.9-4.9-1.8-7.2-2.8-1.7-0.8-3.4-1.6-5-2.4 3.8 3.8 13 10.6 22.9 10.8 0.6-0.7 1.1-1.4 1.5-2.3-1.5-0.3-3-0.6-4.5-1-2.7-0.7-5.2-1.4-7.7-2.3z" fill="#9d9d9c"/>
    <path d="m395 222.5c0-4.7-0.3-9.4-1-13.9 0-0.3-0.1-0.6-0.1-0.9-6.1-39.7-36.2-72.3-75.8-81-1-4.5-5-7.9-9.8-7.9-5.6 0-10.1 4.5-10.1 10.1 0 4.8 3.4 8.8 7.9 9.8v36.9c0 0.6 0.3 1.2 0.8 1.6 0.3 0.2 0.7 0.3 1.1 0.3 0.2 0 0.5 0 0.7-0.1l14.8-5.6c1 1.5 2.5 2.5 4.3 3v17.4c-7.5 9.2-16.8 17.5-26.7 24.9l-11.3-26.2c2.1-1.4 3.5-3.7 3.5-6.4 0-4.2-3.4-7.7-7.7-7.7-4.2 0-7.7 3.4-7.7 7.7 0 4.2 3.4 7.7 7.7 7.7h0.4l11.8 27.3c-6.9 5-14 9.5-21 13.6l-33.6-10.1c-0.4-0.1-0.8-0.1-1.2 0.1l-10 3.9c-1.4-1.9-3.6-3.1-6.2-3.1-4.2 0-7.7 3.4-7.7 7.7 0 4.2 3.4 7.7 7.7 7.7 4.2 0 7.7-3.4 7.7-7.7 0-0.3-0.1-0.6-0.1-0.9l9.4-3.7 29.3 8.8c-25 14-47.4 22.1-51.1 23.4l-1.8 0.6c-1.6-1.2-3.6-1.9-5.8-1.9h-0.3c-4.7-11.1-7.1-23.2-7.1-35.3 0-6 0.6-11.9 1.7-17.6h43.9c0.9 3.3 3.8 5.7 7.4 5.7 4.2 0 7.7-3.4 7.7-7.7 0-4.2-3.4-7.7-7.7-7.7-3.6 0-6.5 2.4-7.4 5.7h-43c8.1-32.9 34.1-59.2 67.7-67 1.8 2.9 5 4.9 8.6 4.9 5.6 0 10.1-4.5 10.1-10.1s-4.5-10.1-10.1-10.1c-4.9 0-8.9 3.5-9.9 8-44.1 10-76.4 49.7-76.4 95.7 0 13.1 2.6 26.2 7.7 38.2-1.9 1.8-3 4.4-3 7.2 0 4.5 2.9 8.2 6.9 9.6v39.4c0 0.7 0.2 1.4 0.6 2l2.2 1.5 29.9 21.1v25.2c0 2.1 1.7 3.8 3.8 3.8h100c2.1 0 3.8-1.7 3.8-3.8v-25.2l30-21.1 2.2-1.6c0.4-0.6 0.6-1.3 0.6-2v-39.7c3.7-1.5 6.3-5.1 6.3-9.3 0-2.6-1-5-2.6-6.8 5.3-11.9 8-25.1 8-38.4zm-113.6-96.9c0.9-1 2.2-1.6 3.6-1.6 2.7 0 4.9 2.2 4.9 4.9s-2.2 4.9-4.9 4.9c-1 0-1.9-0.3-2.7-0.8-1.3-0.9-2.2-2.4-2.2-4 0-1.4 0.5-2.6 1.3-3.4zm22 3.2c0-2.7 2.2-4.9 4.9-4.9 1.4 0 2.6 0.6 3.5 1.5 0.8 0.9 1.3 2 1.3 3.3 0 1.6-0.8 3.1-2.1 4-0.8 0.6-1.7 0.9-2.8 0.9-2.6 0.1-4.8-2.1-4.8-4.8zm18.8 38.5c0 0.3 0.1 0.5 0.1 0.7l-12.2 4.6v-34c3-0.5 5.5-2.3 6.9-4.8 10.7 2.4 20.7 6.7 29.6 12.6-0.1 14.8-5.8 28.4-14.8 40.7v-12.4c3.3-0.9 5.7-3.8 5.7-7.4 0-4.2-3.4-7.7-7.7-7.7-4.2 0.1-7.6 3.5-7.6 7.7zm-108.7 105.4c-1.2 0-2.3-0.5-3.2-1.2-1-0.9-1.7-2.2-1.7-3.6 0-0.6 0.1-1.2 0.3-1.7 0.7-1.8 2.5-3.1 4.5-3.1 0.9 0 1.7 0.3 2.4 0.7 1.4 0.8 2.4 2.4 2.4 4.2 0 0.9-0.3 1.7-0.7 2.4-0.7 1.4-2.2 2.3-4 2.3zm170-1.9c-0.9 1.1-2.3 1.9-3.8 1.9-1.4 0-2.6-0.6-3.5-1.5-0.8-0.9-1.3-2-1.3-3.3 0-2.1 1.3-3.9 3.2-4.5 0.5-0.2 1.1-0.3 1.7-0.3 2.3 0 4.3 1.7 4.8 3.9 0.1 0.3 0.1 0.6 0.1 1-0.2 1-0.6 2-1.2 2.8zm-3-13h-0.9c-5.6 0-10.1 4.5-10.1 10.1 0 4.3 2.7 8 6.6 9.4v36.8l-31.5 22.2c-1 0.7-1.6 1.9-1.6 3.1v21.2c0 1.2-1 2.2-2.2 2.2h-11.7c-1.2 0-2.2-1-2.2-2.2v-7.6c0-2-1.4-3.8-3.4-4-2.3-0.2-4.2 1.6-4.2 3.8v7.9c0 1.2-1 2.2-2.2 2.2h-14.3c-1.2 0-2.2-1-2.2-2.2v-11.7c0-2-1.4-3.8-3.4-4-2.3-0.2-4.2 1.6-4.2 3.8v12c0 1.2-1 2.2-2.2 2.2h-14.3c-1.2 0-2.2-1-2.2-2.2v-7.8c0-2-1.4-3.8-3.4-4-2.3-0.2-4.2 1.6-4.2 3.8v7.9c0 1.2-1 2.2-2.2 2.2h-11.7c-1.2 0-2.2-1-2.2-2.2v-21.2c0-1.2-0.6-2.4-1.6-3.1l-31.4-22.2v-37.2c3.5-1.6 5.9-5.1 5.9-9.2 0-0.6-0.1-1.2-0.2-1.8 4-1.4 34.5-12.3 64.5-31 40.6-25.3 63.1-54 65.7-83.5 17.5 14.1 29.6 34.5 33.1 57.4-0.5 50.1-87.8 81-88.7 81.3-0.2 0.1-0.7 0.2-1.1 0.4-1.1-0.2-2.2-0.4-3.4-0.6-0.8-0.2-1.7-0.3-2.5-0.5-1.3-0.2-2.6-0.5-3.9-0.8-0.2-0.1-0.5-0.1-0.7-0.1l-1.5-0.3c-0.6-0.1-1.2-0.3-1.8-0.4-1.4-0.3-2.8-0.6-4.1-1-2.5-0.6-4.9-1.3-7.3-1.9-2.3-0.7-4.7-1.3-6.9-2h-0.2c-1.7-0.5-3.3-1-4.9-1.6-0.5-0.2-1.1-0.4-1.6-0.5-0.8-0.3-1.5-0.5-2.2-0.7-1.3-0.4-2.5-0.8-3.6-1.3h-0.1c-1.8-0.6-3.4-1.2-4.8-1.8-1.5-0.6-2.8-1.1-3.8-1.5-1-0.5-1.9-0.8-2.4-1.1-0.6-0.3-0.9-0.4-0.9-0.4s0.2 0.3 0.6 0.7c0.4 0.5 1 1.2 1.9 2 0.8 0.8 1.9 1.8 3.2 2.8s2.8 2.1 4.4 3.2h0.1c-0.6 2-1 4.2-1 6.4 0 11.5 9.4 20.9 20.9 20.9 8.9 0 16.5-5.6 19.5-13.5 1 0.1 2.1 0.2 3.1 0.3 1.8 0.1 3.5 0.1 5.1 0.1 0.1 0 0.2 0.1 0.3 0.1l16.9 17.2c4.3 4.3 11 5 16 1.7l26.4-14.8c2.3-1.5 3.8-4.1 3.8-6.9v-30.4c10.2-8.1 19.4-17.7 25.4-28.6-1.1 7.9-3.2 15.4-6.3 22.5zm-98.8 37.8c-0.4 0.8-1 1.6-1.5 2.3-2.4 2.8-6 4.6-10 4.6s-7.6-1.8-10-4.6c-2-2.3-3.1-5.3-3.1-8.5 0-0.8 0.1-1.5 0.2-2.3 1.6 0.8 3.3 1.6 5 2.4 2.3 1 4.7 2 7.2 2.8 2.5 0.9 5.1 1.6 7.7 2.3 1.5 0.4 3 0.7 4.5 1z"/>
   </g>
  </g>
 </g>
 <style type="text/css">.st0{fill:#9D9D9C;}
	.st1{fill:#575756;}</style>
</svg>
